<svg xmlns="http://www.w3.org/2000/svg" viewBox="0 0 256 256" role="img" aria-label="Nati Dolços i Festa">
  <defs>
    <filter id="shadow" x="-30%" y="-30%" width="160%" height="160%">
      <feDropShadow dx="0" dy="12" stdDeviation="14" flood-color="#4b2f2f" flood-opacity=".18"/>
    </filter>
    <linearGradient id="teal" x1="34" y1="172" x2="170" y2="84" gradientUnits="userSpaceOnUse">
      <stop stop-color="#48c3bd"/>
      <stop offset="1" stop-color="#25b9b2"/>
    </linearGradient>
    <linearGradient id="candy" x1="161" y1="100" x2="217" y2="166" gradientUnits="userSpaceOnUse">
      <stop stop-color="#35c5be"/>
      <stop offset=".5" stop-color="#f07d93"/>
      <stop offset="1" stop-color="#36c3bd"/>
    </linearGradient>
  </defs>
  <rect x="22" y="20" width="212" height="216" rx="42" fill="#fff" filter="url(#shadow)"/>
  <path d="M63 60c43 20 87 20 130 0" fill="none" stroke="#5a4a42" stroke-width="4" stroke-linecap="round"/>
  <path d="M74 63l18 4-8 28-18-18z" fill="#ffc23f"/>
  <path d="M104 68l19 1-3 31-20-16z" fill="#ee6f92"/>
  <path d="M136 68l19-2 5 31-21-13z" fill="#39c4bd"/>
  <path d="M170 63l20-6 9 29-24-9z" fill="#a7cf35"/>
  <path d="M83 116c0-9 6-15 15-15 5 0 10 2 14 7l42 50v-41c0-9 7-16 16-16s15 7 15 16v76c0 9-6 15-15 15-5 0-10-2-14-7l-42-50v42c0 9-7 15-16 15s-15-6-15-15z" fill="url(#teal)"/>
  <path d="M181 104h15c16 0 28 13 28 29v47c0 16-12 28-28 28h-15z" fill="url(#candy)"/>
  <path d="M181 128l33-18" stroke="#fff" stroke-width="9" stroke-linecap="round"/>
  <path d="M181 157l37-21" stroke="#fff" stroke-width="9" stroke-linecap="round"/>
  <path d="M181 186l37-21" stroke="#fff" stroke-width="9" stroke-linecap="round"/>
</svg>
